<?xml version="1.0" encoding="utf-8"?>
<!-- Generator: Adobe Illustrator 19.2.1, SVG Export Plug-In . SVG Version: 6.00 Build 0)  -->
<svg version="1.1" id="Layer_1_10_" xmlns="http://www.w3.org/2000/svg" xmlns:xlink="http://www.w3.org/1999/xlink" x="0px"
	 y="0px" viewBox="0 0 1028 1018" style="enable-background:new 0 0 1028 1018;" xml:space="preserve">
<style type="text/css">
	.st0{fill-rule:evenodd;clip-rule:evenodd;fill:#FFFFFF;}
	.st1{fill-rule:evenodd;clip-rule:evenodd;fill:#161B22;}
</style>
<g>
	<path class="st0" d="M996,744.5c0,5.3-0.2,16.7-0.5,25.6c-0.8,21.7-2.5,49.6-5.1,62.3c-3.9,19.1-9.8,37.2-17.5,52.2
		c-9.1,17.8-20.7,33.7-34.4,47.5c-13.7,13.7-29.7,25.3-47.4,34.3c-15.1,7.7-33.3,13.6-52.5,17.5c-12.6,2.5-40.3,4.2-61.9,5
		c-8.9,0.3-20.3,0.5-25.6,0.5l-475.1-0.1c-5.3,0-16.7-0.2-25.6-0.5c-21.7-0.8-49.6-2.5-62.3-5.1c-19.1-3.9-37.2-9.8-52.2-17.5
		c-17.8-9.1-33.7-20.7-47.5-34.4c-13.7-13.7-25.3-29.7-34.3-47.4c-7.7-15.1-13.6-33.3-17.5-52.5c-2.5-12.6-4.2-40.3-5-61.9
		c-0.3-8.9-0.5-20.3-0.5-25.6l0.1-475.1c0-5.3,0.2-16.7,0.5-25.6c0.8-21.7,2.5-49.6,5.1-62.3c3.9-19.1,9.8-37.2,17.5-52.2
		c9.1-17.8,20.7-33.7,34.4-47.5c13.7-13.7,29.7-25.3,47.4-34.3c15.1-7.7,33.3-13.6,52.5-17.5c12.6-2.5,40.3-4.2,61.9-5
		c8.9-0.3,20.3-0.5,25.6-0.5l475.1,0.1c5.3,0,16.7,0.2,25.6,0.5c21.7,0.8,49.6,2.5,62.3,5.1c19.1,3.9,37.2,9.8,52.2,17.5
		c17.8,9.1,33.7,20.7,47.5,34.4c13.7,13.7,25.3,29.7,34.3,47.4c7.7,15.1,13.6,33.3,17.5,52.5c2.6,12.6,4.2,40.3,5,61.9
		c0.3,8.9,0.5,20.3,0.5,25.6L996,744.5z"/>
	<path class="st1" d="M223.8,287c0-37.8,30.7-68.5,68.5-68.5c37.8,0,68.5,30.7,68.5,68.5c0,37.8-30.7,68.5-68.5,68.5
		C254.4,355.5,223.8,324.8,223.8,287z"/>
	<rect x="232.5" y="413.2" class="st1" width="119.5" height="386.5"/>
	<path class="st1" d="M788.9,489.6c-8.2-17.7-17-34.6-32.5-47.1c-15.1-12.2-32.8-23.6-51.5-29.4c-21.2-6.5-36.9-7.8-59.1-6.9
		c-43.9,1.8-92.5,27-117.2,63.1v-56.2H418.8v386.5h116.6V592.3c0-2.2,0.6-37.2,26.4-60.5c32-28.8,125-30.5,125,57.7l-0.3,210.3
		h117.1c0,0,0-249.5,0-249.5C803.5,529.5,797.5,508.3,788.9,489.6z"/>
</g>
</svg>
